# xmcd
#
# Track frame offsets: 
#        150
#        23773
#        40106
#        60014
#        77798
#        94547
#        107821
#        124390
#        140115
#        158351
#        177544
#
# Disc length: 2629 seconds
#
# Revision: 3
# Processed by: cddbd v1.5.2PL0 Copyright (c) Steve Scherf et al.
# Submitted via: ExactAudioCopy v1.1
#
DISCID=850a430b
DTITLE=Brandon Heath - Leaving Eden
DYEAR=2011
DGENRE=Pop Rock
TTITLE0=Leaving Eden
TTITLE1=Your Love
TTITLE2=The Light In Me
TTITLE3=Only Water
TTITLE4=Stolen
TTITLE5=Might Just Save Your Life
TTITLE6=It's Alright
TTITLE7=It's No Good To Be Alone
TTITLE8=Now More Than Ever
TTITLE9=The One
TTITLE10=As Long As I'm Here
EXTD=
EXTT0=
EXTT1=
EXTT2=
EXTT3=
EXTT4=
EXTT5=
EXTT6=
EXTT7=
EXTT8=
EXTT9=
EXTT10=
PLAYORDER=
